STARTFONT 2.1
COMMENT Copyright (C) 1990-1991 EWT Consulting
COMMENT Portions Copyright (C) 1994-1995 Cronyx Ltd.
COMMENT Changes Copyright (C) 1996 by Andrey A. Chernov, Moscow, Russia.
COMMENT Modified by Serge Vakulenko, <vak@cronyx.ru>
COMMENT This software may be used, modified, copied, distributed, and sold,
COMMENT in both source and binary form provided that the copyright
COMMENT and these terms are retained. Under no circumstances is the author
COMMENT responsible for the proper functioning of this software, nor does
COMMENT the author assume any responsibility for damages incurred with its use.
COMMENT $XFree86: xc/fonts/bdf/cyrillic/crox1tbo.bdf,v 3.2 1996/09/01 12:17:53 dawes Exp $
FONT -Cronyx-Times-Bold-I-Normal--11-80-100-100-P-44-KOI8-R
SIZE 8 96 96
FONTBOUNDINGBOX 16 13 -1 -2
STARTPROPERTIES 19
DEFAULT_CHAR 32
FONT_ASCENT 11
FONT_DESCENT 2
SPACING "P"
FONTNAME_REGISTRY ""
FOUNDRY "Cronyx"
FAMILY_NAME "Times"
WEIGHT_NAME "Bold"
SLANT "I"
SETWIDTH_NAME "Normal"
ADD_STYLE_NAME ""
AVERAGE_WIDTH 44
CHARSET_REGISTRY "KOI8"
CHARSET_ENCODING "R"
PIXEL_SIZE 11
POINT_SIZE 80
RESOLUTION_X 100
RESOLUTION_Y 100
COPYRIGHT "Copyright (C) 1990, 1991 EWT Consulting, Portions Copyright (C) 1994 Cronyx Ltd., Portions Copyright (C) 1996 by Andrey A. Chernov, Moscow, Russia."
ENDPROPERTIES
CHARS 224
STARTCHAR space
ENCODING 32
SWIDTH 230 0
DWIDTH 3 0
BBX 7 13 -1 -2
BITMAP
00
00
00
00
00
00
00
00
00
00
00
00
00
ENDCHAR
STARTCHAR exclam
ENCODING 33
SWIDTH 307 0
DWIDTH 4 0
BBX 8 13 -1 -2
BITMAP
00
00
06
06
0C
0C
0C
18
00
00
30
00
00
ENDCHAR
STARTCHAR quotedbl
ENCODING 34
SWIDTH 384 0
DWIDTH 5 0
BBX 9 13 -1 -2
BITMAP
0000
0000
0780
0780
0F00
0000
0000
0000
0000
0000
0000
0000
0000
ENDCHAR
STARTCHAR numbersign
ENCODING 35
SWIDTH 538 0
DWIDTH 7 0
BBX 11 13 -1 -2
BITMAP
0000
0000
03C0
03C0
0FC0
0780
0780
0F00
1F80
0F00
1E00
0000
0000
ENDCHAR
STARTCHAR dollar
ENCODING 36
SWIDTH 461 0
DWIDTH 6 0
BBX 10 13 -1 -2
BITMAP
0000
0000
0180
0380
0D80
0C00
0600
0600
0300
1B00
1C00
0C00
0000
ENDCHAR
STARTCHAR percent
ENCODING 37
SWIDTH 846 0
DWIDTH 11 0
BBX 15 13 -1 -2
BITMAP
0000
0000
0386
06CC
0DB0
0760
00C0
0370
06D8
0CD8
30E0
0000
0000
ENDCHAR
STARTCHAR ampersand
ENCODING 38
SWIDTH 692 0
DWIDTH 9 0
BBX 13 13 -1 -2
BITMAP
0000
0000
0380
06C0
0D80
0700
0700
1BE0
1BC0
1980
1F80
0000
0000
ENDCHAR
STARTCHAR quoteright
ENCODING 39
SWIDTH 230 0
DWIDTH 3 0
BBX 7 13 -1 -2
BITMAP
00
00
06
06
0C
00
00
00
00
00
00
00
00
ENDCHAR
STARTCHAR parenleft
ENCODING 40
SWIDTH 307 0
DWIDTH 4 0
BBX 8 13 -1 -2
BITMAP
00
00
03
03
0C
0C
0C
18
18
18
30
18
18
ENDCHAR
STARTCHAR parenright
ENCODING 41
SWIDTH 307 0
DWIDTH 4 0
BBX 8 13 -1 -2
BITMAP
00
00
06
06
06
06
06
0C
0C
0C
18
30
30
ENDCHAR
STARTCHAR asterisk
ENCODING 42
SWIDTH 461 0
DWIDTH 6 0
BBX 10 13 -1 -2
BITMAP
0000
0000
06C0
0380
0700
0D80
0000
0000
0000
0000
0000
0000
0000
ENDCHAR
STARTCHAR plus
ENCODING 43
SWIDTH 538 0
DWIDTH 7 0
BBX 11 13 -1 -2
BITMAP
0000
0000
0000
0000
0300
0300
0FC0
0600
0600
0000
0000
0000
0000
ENDCHAR
STARTCHAR comma
ENCODING 44
SWIDTH 230 0
DWIDTH 3 0
BBX 7 13 -1 -2
BITMAP
00
00
00
00
00
00
00
00
00
00
30
30
00
ENDCHAR
STARTCHAR minus
ENCODING 45
SWIDTH 307 0
DWIDTH 4 0
BBX 8 13 -1 -2
BITMAP
00
00
00
00
00
00
0E
00
00
00
00
00
00
ENDCHAR
STARTCHAR period
ENCODING 46
SWIDTH 230 0
DWIDTH 3 0
BBX 7 13 -1 -2
BITMAP
00
00
00
00
00
00
00
00
00
00
30
00
00
ENDCHAR
STARTCHAR slash
ENCODING 47
SWIDTH 307 0
DWIDTH 4 0
BBX 8 13 -1 -2
BITMAP
00
00
03
03
06
06
06
18
18
18
30
00
00
ENDCHAR
STARTCHAR zero
ENCODING 48
SWIDTH 461 0
DWIDTH 6 0
BBX 10 13 -1 -2
BITMAP
0000
0000
0380
06C0
0D80
0D80
0D80
1B00
1B00
1B00
1C00
0000
0000
ENDCHAR
STARTCHAR one
ENCODING 49
SWIDTH 461 0
DWIDTH 6 0
BBX 10 13 -1 -2
BITMAP
0000
0000
0180
0380
0300
0300
0300
0600
0600
0600
1E00
0000
0000
ENDCHAR
STARTCHAR two
ENCODING 50
SWIDTH 461 0
DWIDTH 6 0
BBX 10 13 -1 -2
BITMAP
0000
0000
0380
06C0
0180
0180
0300
0C00
1800
1B00
3E00
0000
0000
ENDCHAR
STARTCHAR three
ENCODING 51
SWIDTH 461 0
DWIDTH 6 0
BBX 10 13 -1 -2
BITMAP
0000
0000
0380
06C0
0180
0180
0700
0300
0300
1B00
1C00
0000
0000
ENDCHAR
STARTCHAR four
ENCODING 52
SWIDTH 461 0
DWIDTH 6 0
BBX 10 13 -1 -2
BITMAP
0000
0000
00C0
01C0
0380
0780
0780
1B00
1F00
0300
0600
0000
0000
ENDCHAR
STARTCHAR five
ENCODING 53
SWIDTH 461 0
DWIDTH 6 0
BBX 10 13 -1 -2
BITMAP
0000
0000
07C0
0600
0C00
0F00
0D80
0300
0300
1B00
1C00
0000
0000
ENDCHAR
STARTCHAR six
ENCODING 54
SWIDTH 461 0
DWIDTH 6 0
BBX 10 13 -1 -2
BITMAP
0000
0000
0380
06C0
0C00
0C00
0F00
1B00
1B00
1B00
1C00
0000
0000
ENDCHAR
STARTCHAR seven
ENCODING 55
SWIDTH 461 0
DWIDTH 6 0
BBX 10 13 -1 -2
BITMAP
0000
0000
07C0
06C0
0D80
0300
0300
0600
0C00
0C00
1800
0000
0000
ENDCHAR
STARTCHAR eight
ENCODING 56
SWIDTH 461 0
DWIDTH 6 0
BBX 10 13 -1 -2
BITMAP
0000
0000
0380
06C0
0D80
0D80
0700
1B00
1B00
1B00
1C00
0000
0000
ENDCHAR
STARTCHAR nine
ENCODING 57
SWIDTH 461 0
DWIDTH 6 0
BBX 10 13 -1 -2
BITMAP
0000
0000
0380
06C0
0D80
0D80
0780
0300
0300
0300
1C00
0000
0000
ENDCHAR
STARTCHAR colon
ENCODING 58
SWIDTH 230 0
DWIDTH 3 0
BBX 7 13 -1 -2
BITMAP
00
00
00
00
0C
00
00
00
00
00
30
00
00
ENDCHAR
STARTCHAR semicolon
ENCODING 59
SWIDTH 230 0
DWIDTH 3 0
BBX 7 13 -1 -2
BITMAP
00
00
00
00
0C
00
00
00
00
00
30
30
00
ENDCHAR
STARTCHAR less
ENCODING 60
SWIDTH 538 0
DWIDTH 7 0
BBX 11 13 -1 -2
BITMAP
0000
0000
0000
0000
0000
01C0
0700
1800
0E00
0380
0000
0000
0000
ENDCHAR
STARTCHAR equal
ENCODING 61
SWIDTH 538 0
DWIDTH 7 0
BBX 11 13 -1 -2
BITMAP
0000
0000
0000
0000
0000
0000
0FC0
0000
1F80
0000
0000
0000
0000
ENDCHAR
STARTCHAR greater
ENCODING 62
SWIDTH 538 0
DWIDTH 7 0
BBX 11 13 -1 -2
BITMAP
0000
0000
0000
0000
0000
0E00
0380
0180
0700
1C00
0000
0000
0000
ENDCHAR
STARTCHAR question
ENCODING 63
SWIDTH 461 0
DWIDTH 6 0
BBX 10 13 -1 -2
BITMAP
0000
0000
0380
06C0
0D80
0180
0300
0C00
0C00
0000
1800
0000
0000
ENDCHAR
STARTCHAR at
ENCODING 64
SWIDTH 769 0
DWIDTH 10 0
BBX 14 13 -1 -2
BITMAP
0000
0000
01F0
0318
0DF8
0F78
0F78
1EF0
1EF0
1BE0
1800
0F80
0000
ENDCHAR
STARTCHAR A
ENCODING 65
SWIDTH 692 0
DWIDTH 9 0
BBX 13 13 -1 -2
BITMAP
0000
0000
00C0
00C0
03C0
03C0
03C0
0CC0
0FC0
0CC0
3FC0
0000
0000
ENDCHAR
STARTCHAR B
ENCODING 66
SWIDTH 538 0
DWIDTH 7 0
BBX 11 13 -1 -2
BITMAP
0000
0000
07C0
0360
06C0
06C0
0780
0D80
0D80
0D80
3E00
0000
0000
ENDCHAR
STARTCHAR C
ENCODING 67
SWIDTH 538 0
DWIDTH 7 0
BBX 11 13 -1 -2
BITMAP
0000
0000
03E0
0660
0C00
0C00
0C00
1800
1800
1980
1E00
0000
0000
ENDCHAR
STARTCHAR D
ENCODING 68
SWIDTH 615 0
DWIDTH 8 0
BBX 12 13 -1 -2
BITMAP
0000
0000
07C0
0360
0660
0660
0660
0CC0
0CC0
0D80
3E00
0000
0000
ENDCHAR
STARTCHAR E
ENCODING 69
SWIDTH 538 0
DWIDTH 7 0
BBX 11 13 -1 -2
BITMAP
0000
0000
07E0
0360
0600
0780
0780
0F00
0C00
0D80
3F00
0000
0000
ENDCHAR
STARTCHAR F
ENCODING 70
SWIDTH 538 0
DWIDTH 7 0
BBX 11 13 -1 -2
BITMAP
0000
0000
07E0
0360
0600
0780
0780
0F00
0C00
0C00
3C00
0000
0000
ENDCHAR
STARTCHAR G
ENCODING 71
SWIDTH 615 0
DWIDTH 8 0
BBX 12 13 -1 -2
BITMAP
0000
0000
03E0
0660
0C00
0C00
0DE0
1980
1980
1980
1E00
0000
0000
ENDCHAR
STARTCHAR H
ENCODING 72
SWIDTH 692 0
DWIDTH 9 0
BBX 13 13 -1 -2
BITMAP
0000
0000
07F8
0330
0660
0660
07E0
0CC0
0CC0
0CC0
3FC0
0000
0000
ENDCHAR
STARTCHAR I
ENCODING 73
SWIDTH 384 0
DWIDTH 5 0
BBX 9 13 -1 -2
BITMAP
0000
0000
0780
0300
0600
0600
0600
0C00
0C00
0C00
3C00
0000
0000
ENDCHAR
STARTCHAR J
ENCODING 74
SWIDTH 461 0
DWIDTH 6 0
BBX 10 13 -1 -2
BITMAP
0000
0000
03C0
0180
0300
0300
0300
0600
0600
1E00
3800
0000
0000
ENDCHAR
STARTCHAR K
ENCODING 75
SWIDTH 692 0
DWIDTH 9 0
BBX 13 13 -1 -2
BITMAP
0000
0000
07F0
0360
0780
0700
0700
0F00
0D80
0CC0
3DC0
0000
0000
ENDCHAR
STARTCHAR L
ENCODING 76
SWIDTH 538 0
DWIDTH 7 0
BBX 11 13 -1 -2
BITMAP
0000
0000
0780
0300
0600
0600
0600
0C00
0C00
0D80
3F00
0000
0000
ENDCHAR
STARTCHAR M
ENCODING 77
SWIDTH 846 0
DWIDTH 11 0
BBX 15 13 -1 -2
BITMAP
0000
0000
070E
030C
0738
0738
07F8
0FF0
0DB0
0DB0
3CF0
0000
0000
ENDCHAR
STARTCHAR N
ENCODING 78
SWIDTH 692 0
DWIDTH 9 0
BBX 13 13 -1 -2
BITMAP
0000
0000
0778
0330
0760
0760
07E0
0FC0
0DC0
0DC0
3D80
0000
0000
ENDCHAR
STARTCHAR O
ENCODING 79
SWIDTH 538 0
DWIDTH 7 0
BBX 11 13 -1 -2
BITMAP
0000
0000
03C0
0660
0CC0
0CC0
0CC0
1980
1980
1980
1E00
0000
0000
ENDCHAR
STARTCHAR P
ENCODING 80
SWIDTH 538 0
DWIDTH 7 0
BBX 11 13 -1 -2
BITMAP
0000
0000
07C0
0360
06C0
06C0
0780
0C00
0C00
0C00
3C00
0000
0000
ENDCHAR
STARTCHAR Q
ENCODING 81
SWIDTH 538 0
DWIDTH 7 0
BBX 11 13 -1 -2
BITMAP
0000
0000
03C0
0660
0CC0
0CC0
0CC0
1980
1980
1980
1E00
0E00
0700
ENDCHAR
STARTCHAR R
ENCODING 82
SWIDTH 615 0
DWIDTH 8 0
BBX 12 13 -1 -2
BITMAP
0000
0000
07C0
0360
06C0
06C0
0780
0F00
0D80
0D80
3F80
0000
0000
ENDCHAR
STARTCHAR S
ENCODING 83
SWIDTH 384 0
DWIDTH 5 0
BBX 9 13 -1 -2
BITMAP
0000
0000
0380
0780
0C00
0C00
0600
0600
0600
1E00
3800
0000
0000
ENDCHAR
STARTCHAR T
ENCODING 84
SWIDTH 538 0
DWIDTH 7 0
BBX 11 13 -1 -2
BITMAP
0000
0000
07E0
07E0
0300
0300
0300
0600
0600
0600
1E00
0000
0000
ENDCHAR
STARTCHAR U
ENCODING 85
SWIDTH 692 0
DWIDTH 9 0
BBX 13 13 -1 -2
BITMAP
0000
0000
07F8
0330
0660
0660
0660
0CC0
0CC0
0CC0
0F00
0000
0000
ENDCHAR
STARTCHAR V
ENCODING 86
SWIDTH 692 0
DWIDTH 9 0
BBX 13 13 -1 -2
BITMAP
0000
0000
07F8
0330
0660
0660
03C0
0780
0780
0300
0600
0000
0000
ENDCHAR
STARTCHAR W
ENCODING 87
SWIDTH 846 0
DWIDTH 11 0
BBX 15 13 -1 -2
BITMAP
0000
0000
079E
030C
0618
06D8
06D8
0FF0
0FF0
0660
0CC0
0000
0000
ENDCHAR
STARTCHAR X
ENCODING 88
SWIDTH 692 0
DWIDTH 9 0
BBX 13 13 -1 -2
BITMAP
0000
0000
07F8
0330
03C0
03C0
0180
0780
0780
0CC0
3FC0
0000
0000
ENDCHAR
STARTCHAR Y
ENCODING 89
SWIDTH 692 0
DWIDTH 9 0
BBX 13 13 -1 -2
BITMAP
0000
0000
07F8
0330
0660
03C0
03C0
0300
0300
0300
0F00
0000
0000
ENDCHAR
STARTCHAR Z
ENCODING 90
SWIDTH 538 0
DWIDTH 7 0
BBX 11 13 -1 -2
BITMAP
0000
0000
07E0
0660
0180
0180
0300
0C00
0C00
1980
3F00
0000
0000
ENDCHAR
STARTCHAR bracketleft
ENCODING 91
SWIDTH 307 0
DWIDTH 4 0
BBX 8 13 -1 -2
BITMAP
00
00
07
06
0C
0C
0C
18
18
18
30
30
38
ENDCHAR
STARTCHAR backslash
ENCODING 92
SWIDTH 307 0
DWIDTH 4 0
BBX 8 13 -1 -2
BITMAP
00
00
06
06
0C
0C
0C
0C
0C
0C
18
00
00
ENDCHAR
STARTCHAR bracketright
ENCODING 93
SWIDTH 307 0
DWIDTH 4 0
BBX 8 13 -1 -2
BITMAP
00
00
07
03
06
06
06
0C
0C
0C
18
18
38
ENDCHAR
STARTCHAR asciicircum
ENCODING 94
SWIDTH 461 0
DWIDTH 6 0
BBX 10 13 -1 -2
BITMAP
0000
0000
0380
06C0
0000
0000
0000
0000
0000
0000
0000
0000
0000
ENDCHAR
STARTCHAR underscore
ENCODING 95
SWIDTH 461 0
DWIDTH 6 0
BBX 10 13 -1 -2
BITMAP
0000
0000
0000
0000
0000
0000
0000
0000
0000
0000
0000
0000
7E00
ENDCHAR
STARTCHAR quoteleft
ENCODING 96
SWIDTH 307 0
DWIDTH 4 0
BBX 8 13 -1 -2
BITMAP
00
00
06
03
00
00
00
00
00
00
00
00
00
ENDCHAR
STARTCHAR a
ENCODING 97
SWIDTH 461 0
DWIDTH 6 0
BBX 10 13 -1 -2
BITMAP
0000
0000
0000
0000
0000
0700
0180
0F00
1B00
1B00
1E00
0000
0000
ENDCHAR
STARTCHAR b
ENCODING 98
SWIDTH 461 0
DWIDTH 6 0
BBX 10 13 -1 -2
BITMAP
0000
0000
0E00
0600
0C00
0F00
0D80
1B00
1B00
1B00
1C00
0000
0000
ENDCHAR
STARTCHAR c
ENCODING 99
SWIDTH 461 0
DWIDTH 6 0
BBX 10 13 -1 -2
BITMAP
0000
0000
0000
0000
0000
0700
0D80
1800
1800
1B00
1C00
0000
0000
ENDCHAR
STARTCHAR d
ENCODING 100
SWIDTH 461 0
DWIDTH 6 0
BBX 10 13 -1 -2
BITMAP
0000
0000
01C0
00C0
0180
0780
0D80
1B00
1B00
1B00
1E00
0000
0000
ENDCHAR
STARTCHAR e
ENCODING 101
SWIDTH 461 0
DWIDTH 6 0
BBX 10 13 -1 -2
BITMAP
0000
0000
0000
0000
0000
0700
0D80
1F00
1800
1B00
1C00
0000
0000
ENDCHAR
STARTCHAR f
ENCODING 102
SWIDTH 384 0
DWIDTH 5 0
BBX 9 13 -1 -2
BITMAP
0000
0000
0180
0300
0600
0F00
0600
0C00
0C00
0C00
1C00
0000
0000
ENDCHAR
STARTCHAR g
ENCODING 103
SWIDTH 461 0
DWIDTH 6 0
BBX 10 13 -1 -2
BITMAP
0000
0000
0000
0000
0000
0780
0D80
1B00
1B00
1B00
1E00
0600
1C00
ENDCHAR
STARTCHAR h
ENCODING 104
SWIDTH 461 0
DWIDTH 6 0
BBX 10 13 -1 -2
BITMAP
0000
0000
0E00
0600
0C00
0F00
0D80
1B00
1B00
1B00
3600
0000
0000
ENDCHAR
STARTCHAR i
ENCODING 105
SWIDTH 307 0
DWIDTH 4 0
BBX 8 13 -1 -2
BITMAP
00
00
03
00
00
0E
06
0C
0C
0C
18
00
00
ENDCHAR
STARTCHAR j
ENCODING 106
SWIDTH 307 0
DWIDTH 4 0
BBX 8 13 -1 -2
BITMAP
00
00
03
00
00
0E
06
0C
0C
0C
18
18
30
ENDCHAR
STARTCHAR k
ENCODING 107
SWIDTH 461 0
DWIDTH 6 0
BBX 10 13 -1 -2
BITMAP
0000
0000
0E00
0600
0C00
0D80
0F00
1C00
1C00
1E00
3600
0000
0000
ENDCHAR
STARTCHAR l
ENCODING 108
SWIDTH 230 0
DWIDTH 3 0
BBX 7 13 -1 -2
BITMAP
00
00
0E
06
0C
0C
0C
18
18
18
30
00
00
ENDCHAR
STARTCHAR m
ENCODING 109
SWIDTH 692 0
DWIDTH 9 0
BBX 13 13 -1 -2
BITMAP
0000
0000
0000
0000
0000
17E0
0DB0
1B60
1B60
1B60
36C0
0000
0000
ENDCHAR
STARTCHAR n
ENCODING 110
SWIDTH 461 0
DWIDTH 6 0
BBX 10 13 -1 -2
BITMAP
0000
0000
0000
0000
0000
1700
0D80
1B00
1B00
1B00
3600
0000
0000
ENDCHAR
STARTCHAR o
ENCODING 111
SWIDTH 461 0
DWIDTH 6 0
BBX 10 13 -1 -2
BITMAP
0000
0000
0000
0000
0000
0700
0D80
1B00
1B00
1B00
1C00
0000
0000
ENDCHAR
STARTCHAR p
ENCODING 112
SWIDTH 461 0
DWIDTH 6 0
BBX 10 13 -1 -2
BITMAP
0000
0000
0000
0000
0000
1700
0D80
1B00
1B00
1B00
3C00
3000
7800
ENDCHAR
STARTCHAR q
ENCODING 113
SWIDTH 461 0
DWIDTH 6 0
BBX 10 13 -1 -2
BITMAP
0000
0000
0000
0000
0000
0700
0D80
1B00
1B00
1B00
1E00
0600
0E00
ENDCHAR
STARTCHAR r
ENCODING 114
SWIDTH 384 0
DWIDTH 5 0
BBX 9 13 -1 -2
BITMAP
0000
0000
0000
0000
0000
1700
0F00
1800
1800
1800
3800
0000
0000
ENDCHAR
STARTCHAR s
ENCODING 115
SWIDTH 384 0
DWIDTH 5 0
BBX 9 13 -1 -2
BITMAP
0000
0000
0000
0000
0000
0700
0C00
0C00
0600
0600
3800
0000
0000
ENDCHAR
STARTCHAR t
ENCODING 116
SWIDTH 384 0
DWIDTH 5 0
BBX 9 13 -1 -2
BITMAP
0000
0000
0000
0300
0600
0F00
0600
0C00
0C00
0C00
0C00
0000
0000
ENDCHAR
STARTCHAR u
ENCODING 117
SWIDTH 461 0
DWIDTH 6 0
BBX 10 13 -1 -2
BITMAP
0000
0000
0000
0000
0000
1F80
0D80
1B00
1B00
1B00
1E00
0000
0000
ENDCHAR
STARTCHAR v
ENCODING 118
SWIDTH 461 0
DWIDTH 6 0
BBX 10 13 -1 -2
BITMAP
0000
0000
0000
0000
0000
1180
1180
1E00
1E00
0C00
1800
0000
0000
ENDCHAR
STARTCHAR w
ENCODING 119
SWIDTH 692 0
DWIDTH 9 0
BBX 13 13 -1 -2
BITMAP
0000
0000
0000
0000
0000
0FF0
0DB0
1FE0
1FE0
0CC0
1980
0000
0000
ENDCHAR
STARTCHAR x
ENCODING 120
SWIDTH 461 0
DWIDTH 6 0
BBX 10 13 -1 -2
BITMAP
0000
0000
0000
0000
0000
1F80
0F00
0C00
0C00
1E00
7E00
0000
0000
ENDCHAR
STARTCHAR y
ENCODING 121
SWIDTH 461 0
DWIDTH 6 0
BBX 10 13 -1 -2
BITMAP
0000
0000
0000
0000
0000
0D80
0D80
1B00
1B00
0E00
1800
1800
3000
ENDCHAR
STARTCHAR z
ENCODING 122
SWIDTH 461 0
DWIDTH 6 0
BBX 10 13 -1 -2
BITMAP
0000
0000
0000
0000
0000
0F80
0D80
0600
0C00
1B00
3E00
0000
0000
ENDCHAR
STARTCHAR braceleft
ENCODING 123
SWIDTH 384 0
DWIDTH 5 0
BBX 9 13 -1 -2
BITMAP
0000
0000
0180
0300
0600
0600
0600
1800
0C00
0C00
1800
1800
0C00
ENDCHAR
STARTCHAR bar
ENCODING 124
SWIDTH 230 0
DWIDTH 3 0
BBX 7 13 -1 -2
BITMAP
00
00
00
06
0C
0C
0C
18
18
18
30
30
00
ENDCHAR
STARTCHAR braceright
ENCODING 125
SWIDTH 384 0
DWIDTH 5 0
BBX 9 13 -1 -2
BITMAP
0000
0000
0600
0300
0600
0600
0600
0600
0C00
0C00
1800
1800
3000
ENDCHAR
STARTCHAR asciitilde
ENCODING 126
SWIDTH 538 0
DWIDTH 7 0
BBX 11 13 -1 -2
BITMAP
0000
0000
03E0
07C0
0000
0000
0000
0000
0000
0000
0000
0000
0000
ENDCHAR
STARTCHAR C177
ENCODING -1
SWIDTH 384 0
DWIDTH 5 0
BBX 9 13 -1 -2
BITMAP
0000
0000
0000
0700
0E00
0E00
0E00
1C00
1C00
1C00
3800
3800
0000
ENDCHAR
STARTCHAR C200
ENCODING -1
SWIDTH 384 0
DWIDTH 5 0
BBX 9 13 -1 -2
BITMAP
0000
0000
0000
0700
0E00
0E00
0E00
1C00
1C00
1C00
3800
3800
0000
ENDCHAR
STARTCHAR C201
ENCODING -1
SWIDTH 384 0
DWIDTH 5 0
BBX 9 13 -1 -2
BITMAP
0000
0000
0000
0700
0E00
0E00
0E00
1C00
1C00
1C00
3800
3800
0000
ENDCHAR
STARTCHAR C202
ENCODING -1
SWIDTH 384 0
DWIDTH 5 0
BBX 9 13 -1 -2
BITMAP
0000
0000
0000
0700
0E00
0E00
0E00
1C00
1C00
1C00
3800
3800
0000
ENDCHAR
STARTCHAR C203
ENCODING -1
SWIDTH 384 0
DWIDTH 5 0
BBX 9 13 -1 -2
BITMAP
0000
0000
0000
0700
0E00
0E00
0E00
1C00
1C00
1C00
3800
3800
0000
ENDCHAR
STARTCHAR C204
ENCODING -1
SWIDTH 384 0
DWIDTH 5 0
BBX 9 13 -1 -2
BITMAP
0000
0000
0000
0700
0E00
0E00
0E00
1C00
1C00
1C00
3800
3800
0000
ENDCHAR
STARTCHAR C205
ENCODING -1
SWIDTH 384 0
DWIDTH 5 0
BBX 9 13 -1 -2
BITMAP
0000
0000
0000
0700
0E00
0E00
0E00
1C00
1C00
1C00
3800
3800
0000
ENDCHAR
STARTCHAR C206
ENCODING -1
SWIDTH 384 0
DWIDTH 5 0
BBX 9 13 -1 -2
BITMAP
0000
0000
0000
0700
0E00
0E00
0E00
1C00
1C00
1C00
3800
3800
0000
ENDCHAR
STARTCHAR C207
ENCODING -1
SWIDTH 384 0
DWIDTH 5 0
BBX 9 13 -1 -2
BITMAP
0000
0000
0000
0700
0E00
0E00
0E00
1C00
1C00
1C00
3800
3800
0000
ENDCHAR
STARTCHAR C210
ENCODING -1
SWIDTH 384 0
DWIDTH 5 0
BBX 9 13 -1 -2
BITMAP
0000
0000
0000
0700
0E00
0E00
0E00
1C00
1C00
1C00
3800
3800
0000
ENDCHAR
STARTCHAR C211
ENCODING -1
SWIDTH 384 0
DWIDTH 5 0
BBX 9 13 -1 -2
BITMAP
0000
0000
0000
0700
0E00
0E00
0E00
1C00
1C00
1C00
3800
3800
0000
ENDCHAR
STARTCHAR C212
ENCODING -1
SWIDTH 384 0
DWIDTH 5 0
BBX 9 13 -1 -2
BITMAP
0000
0000
0000
0700
0E00
0E00
0E00
1C00
1C00
1C00
3800
3800
0000
ENDCHAR
STARTCHAR C213
ENCODING -1
SWIDTH 384 0
DWIDTH 5 0
BBX 9 13 -1 -2
BITMAP
0000
0000
0000
0700
0E00
0E00
0E00
1C00
1C00
1C00
3800
3800
0000
ENDCHAR
STARTCHAR C214
ENCODING -1
SWIDTH 384 0
DWIDTH 5 0
BBX 9 13 -1 -2
BITMAP
0000
0000
0000
0700
0E00
0E00
0E00
1C00
1C00
1C00
3800
3800
0000
ENDCHAR
STARTCHAR C215
ENCODING -1
SWIDTH 384 0
DWIDTH 5 0
BBX 9 13 -1 -2
BITMAP
0000
0000
0000
0700
0E00
0E00
0E00
1C00
1C00
1C00
3800
3800
0000
ENDCHAR
STARTCHAR C216
ENCODING -1
SWIDTH 384 0
DWIDTH 5 0
BBX 9 13 -1 -2
BITMAP
0000
0000
0000
0700
0E00
0E00
0E00
1C00
1C00
1C00
3800
3800
0000
ENDCHAR
STARTCHAR C217
ENCODING -1
SWIDTH 384 0
DWIDTH 5 0
BBX 9 13 -1 -2
BITMAP
0000
0000
0000
0700
0E00
0E00
0E00
1C00
1C00
1C00
3800
3800
0000
ENDCHAR
STARTCHAR C220
ENCODING -1
SWIDTH 384 0
DWIDTH 5 0
BBX 9 13 -1 -2
BITMAP
0000
0000
0000
0700
0E00
0E00
0E00
1C00
1C00
1C00
3800
3800
0000
ENDCHAR
STARTCHAR C221
ENCODING -1
SWIDTH 230 0
DWIDTH 3 0
BBX 7 13 -1 -2
BITMAP
00
00
06
06
00
00
00
00
00
00
00
00
00
ENDCHAR
STARTCHAR C222
ENCODING -1
SWIDTH 230 0
DWIDTH 3 0
BBX 7 13 -1 -2
BITMAP
00
00
06
06
00
00
00
00
00
00
00
00
00
ENDCHAR
STARTCHAR C223
ENCODING -1
SWIDTH 384 0
DWIDTH 5 0
BBX 9 13 -1 -2
BITMAP
0000
0000
0000
0700
0E00
0E00
0E00
1C00
1C00
1C00
3800
3800
0000
ENDCHAR
STARTCHAR C224
ENCODING -1
SWIDTH 384 0
DWIDTH 5 0
BBX 9 13 -1 -2
BITMAP
0000
0000
0000
0700
0E00
0E00
0E00
1C00
1C00
1C00
3800
3800
0000
ENDCHAR
STARTCHAR C225
ENCODING -1
SWIDTH 384 0
DWIDTH 5 0
BBX 9 13 -1 -2
BITMAP
0000
0000
0000
0700
0E00
0E00
0E00
1C00
1C00
1C00
3800
3800
0000
ENDCHAR
STARTCHAR C226
ENCODING -1
SWIDTH 384 0
DWIDTH 5 0
BBX 9 13 -1 -2
BITMAP
0000
0000
0000
0700
0E00
0E00
0E00
1C00
1C00
1C00
3800
3800
0000
ENDCHAR
STARTCHAR C227
ENCODING -1
SWIDTH 384 0
DWIDTH 5 0
BBX 9 13 -1 -2
BITMAP
0000
0000
0000
0700
0E00
0E00
0E00
1C00
1C00
1C00
3800
3800
0000
ENDCHAR
STARTCHAR C230
ENCODING -1
SWIDTH 384 0
DWIDTH 5 0
BBX 9 13 -1 -2
BITMAP
0000
0000
0000
0700
0E00
0E00
0E00
1C00
1C00
1C00
3800
3800
0000
ENDCHAR
STARTCHAR C231
ENCODING -1
SWIDTH 384 0
DWIDTH 5 0
BBX 9 13 -1 -2
BITMAP
0000
0000
0000
0700
0E00
0E00
0E00
1C00
1C00
1C00
3800
3800
0000
ENDCHAR
STARTCHAR C232
ENCODING -1
SWIDTH 384 0
DWIDTH 5 0
BBX 9 13 -1 -2
BITMAP
0000
0000
0000
0700
0E00
0E00
0E00
1C00
1C00
1C00
3800
3800
0000
ENDCHAR
STARTCHAR C233
ENCODING -1
SWIDTH 384 0
DWIDTH 5 0
BBX 9 13 -1 -2
BITMAP
0000
0000
0000
0700
0E00
0E00
0E00
1C00
1C00
1C00
3800
3800
0000
ENDCHAR
STARTCHAR C234
ENCODING 176
SWIDTH 384 0
DWIDTH 5 0
BBX 9 13 -1 -2
BITMAP
0000
0000
0000
0700
0E00
0E00
0E00
1C00
1C00
1C00
3800
3800
0000
ENDCHAR
STARTCHAR C235
ENCODING 178
SWIDTH 384 0
DWIDTH 5 0
BBX 9 13 -1 -2
BITMAP
0000
0000
0000
0700
0E00
0E00
0E00
1C00
1C00
1C00
3800
3800
0000
ENDCHAR
STARTCHAR C236
ENCODING -1
SWIDTH 384 0
DWIDTH 5 0
BBX 9 13 -1 -2
BITMAP
0000
0000
0000
0700
0E00
0E00
0E00
1C00
1C00
1C00
3800
3800
0000
ENDCHAR
STARTCHAR C237
ENCODING -1
SWIDTH 384 0
DWIDTH 5 0
BBX 9 13 -1 -2
BITMAP
0000
0000
0000
0700
0E00
0E00
0E00
1C00
1C00
1C00
3800
3800
0000
ENDCHAR
STARTCHAR C240
ENCODING 160
SWIDTH 230 0
DWIDTH 3 0
BBX 7 13 -1 -2
BITMAP
00
00
00
00
00
00
00
00
00
00
00
00
00
ENDCHAR
STARTCHAR exclamdown
ENCODING 161
SWIDTH 692 0
DWIDTH 9 0
BBX 13 13 -1 -2
BITMAP
01F8
0000
07F0
0330
0600
06C0
07C0
0D80
0C00
0CC0
3F80
0000
0000
ENDCHAR
STARTCHAR cent
ENCODING 162
SWIDTH 461 0
DWIDTH 6 0
BBX 10 13 -1 -2
BITMAP
0000
0000
0000
0000
0300
0700
0D80
1800
1800
1B00
1C00
1800
0000
ENDCHAR
STARTCHAR sterling
ENCODING 163
SWIDTH 461 0
DWIDTH 6 0
BBX 10 13 -1 -2
BITMAP
0000
0000
0300
0780
0F00
0C00
0600
1E00
0C00
0C00
3E00
0000
0000
ENDCHAR
STARTCHAR currency
ENCODING 164
SWIDTH 461 0
DWIDTH 6 0
BBX 10 13 -1 -2
BITMAP
0000
0000
0000
0000
0D80
0700
0700
1B00
0000
0000
0000
0000
0000
ENDCHAR
STARTCHAR yen
ENCODING 165
SWIDTH 461 0
DWIDTH 6 0
BBX 10 13 -1 -2
BITMAP
0000
0000
0FC0
08C0
1F80
0F00
1F80
0C00
0C00
0C00
3C00
0000
0000
ENDCHAR
STARTCHAR brokenbar
ENCODING 166
SWIDTH 230 0
DWIDTH 3 0
BBX 7 13 -1 -2
BITMAP
00
00
06
06
0C
0C
0C
00
18
18
30
30
30
ENDCHAR
STARTCHAR section
ENCODING 167
SWIDTH 461 0
DWIDTH 6 0
BBX 10 13 -1 -2
BITMAP
0000
0000
0380
06C0
0C00
0600
0F00
1B00
0F00
0600
3600
3600
1C00
ENDCHAR
STARTCHAR dieresis
ENCODING 168
SWIDTH 307 0
DWIDTH 4 0
BBX 8 13 -1 -2
BITMAP
00
00
0B
00
00
00
00
00
00
00
00
00
00
ENDCHAR
STARTCHAR copyright
ENCODING 191
SWIDTH 692 0
DWIDTH 9 0
BBX 13 13 -1 -2
BITMAP
0000
0000
01E0
0330
0FF0
0F30
0F30
1FE0
0CC0
0780
0000
0000
0000
ENDCHAR
STARTCHAR ordfeminine
ENCODING 170
SWIDTH 307 0
DWIDTH 4 0
BBX 8 13 -1 -2
BITMAP
00
00
06
03
0E
0E
00
1C
00
00
00
00
00
ENDCHAR
STARTCHAR guillemotleft
ENCODING 171
SWIDTH 461 0
DWIDTH 6 0
BBX 10 13 -1 -2
BITMAP
0000
0000
0000
0000
0000
0000
0000
0F00
1E00
1E00
1E00
0000
0000
ENDCHAR
STARTCHAR logicalnot
ENCODING 172
SWIDTH 538 0
DWIDTH 7 0
BBX 11 13 -1 -2
BITMAP
0000
0000
0000
0000
0000
0000
0FC0
0180
0000
0000
0000
0000
0000
ENDCHAR
STARTCHAR hyphen
ENCODING 173
SWIDTH 307 0
DWIDTH 4 0
BBX 8 13 -1 -2
BITMAP
00
00
00
00
00
00
00
1C
00
00
00
00
00
ENDCHAR
STARTCHAR registered
ENCODING 174
SWIDTH 692 0
DWIDTH 9 0
BBX 13 13 -1 -2
BITMAP
0000
0000
01E0
0330
0FB0
0FF0
0FB0
1FE0
0CC0
0780
0000
0000
0000
ENDCHAR
STARTCHAR macron
ENCODING 175
SWIDTH 461 0
DWIDTH 6 0
BBX 10 13 -1 -2
BITMAP
07E0
0000
0000
0000
0000
0000
0000
0000
0000
0000
0000
0000
0000
ENDCHAR
STARTCHAR degree
ENCODING 156
SWIDTH 307 0
DWIDTH 4 0
BBX 8 13 -1 -2
BITMAP
00
00
06
0B
0C
00
00
00
00
00
00
00
00
ENDCHAR
STARTCHAR plusminus
ENCODING 177
SWIDTH 538 0
DWIDTH 7 0
BBX 11 13 -1 -2
BITMAP
0000
0000
0000
0000
0300
0300
0FC0
0600
0600
0000
3F00
0000
0000
ENDCHAR
STARTCHAR twosuperior
ENCODING 157
SWIDTH 307 0
DWIDTH 4 0
BBX 8 13 -1 -2
BITMAP
00
00
0E
03
0C
10
1E
00
00
00
00
00
00
ENDCHAR
STARTCHAR threesuperior
ENCODING 179
SWIDTH 307 0
DWIDTH 4 0
BBX 8 13 -1 -2
BITMAP
00
00
0E
03
0C
06
1C
00
00
00
00
00
00
ENDCHAR
STARTCHAR acute
ENCODING 180
SWIDTH 307 0
DWIDTH 4 0
BBX 8 13 -1 -2
BITMAP
00
00
03
06
00
00
00
00
00
00
00
00
00
ENDCHAR
STARTCHAR mu
ENCODING 181
SWIDTH 538 0
DWIDTH 7 0
BBX 11 13 -1 -2
BITMAP
0000
0000
0000
0000
0000
0000
0000
1B00
1B00
1B00
3F00
3000
3000
ENDCHAR
STARTCHAR paragraph
ENCODING 182
SWIDTH 461 0
DWIDTH 6 0
BBX 10 13 -1 -2
BITMAP
0000
0000
03C0
0780
0F00
0F00
0700
0600
0600
0600
0C00
0C00
0000
ENDCHAR
STARTCHAR periodcentered
ENCODING 183
SWIDTH 230 0
DWIDTH 3 0
BBX 7 13 -1 -2
BITMAP
00
00
00
00
00
00
0C
00
00
00
00
00
00
ENDCHAR
STARTCHAR cedilla
ENCODING 184
SWIDTH 307 0
DWIDTH 4 0
BBX 8 13 -1 -2
BITMAP
00
00
00
00
00
00
00
00
00
00
00
18
38
ENDCHAR
STARTCHAR onesuperior
ENCODING 185
SWIDTH 307 0
DWIDTH 4 0
BBX 8 13 -1 -2
BITMAP
00
00
06
0E
0C
0C
1E
00
00
00
00
00
00
ENDCHAR
STARTCHAR ordmasculine
ENCODING 186
SWIDTH 307 0
DWIDTH 4 0
BBX 8 13 -1 -2
BITMAP
00
00
07
07
0E
0E
00
1C
00
00
00
00
00
ENDCHAR
STARTCHAR guillemotright
ENCODING 187
SWIDTH 461 0
DWIDTH 6 0
BBX 10 13 -1 -2
BITMAP
0000
0000
0000
0000
0000
0000
0000
1E00
0F00
0F00
3C00
0000
0000
ENDCHAR
STARTCHAR onequarter
ENCODING 188
SWIDTH 692 0
DWIDTH 9 0
BBX 13 13 -1 -2
BITMAP
0000
0000
0300
0718
0660
06C0
0FB0
06E0
0DE0
19E0
00C0
0000
0000
ENDCHAR
STARTCHAR onehalf
ENCODING 189
SWIDTH 692 0
DWIDTH 9 0
BBX 13 13 -1 -2
BITMAP
0000
0000
0300
0718
0660
06C0
0FE0
0660
0CC0
1980
03C0
0000
0000
ENDCHAR
STARTCHAR threequarters
ENCODING 190
SWIDTH 692 0
DWIDTH 9 0
BBX 13 13 -1 -2
BITMAP
0000
0000
0700
0198
0660
03C0
0FB0
06E0
0DE0
19E0
00C0
0000
0000
ENDCHAR
STARTCHAR questiondown
ENCODING 169
SWIDTH 461 0
DWIDTH 6 0
BBX 10 13 -1 -2
BITMAP
0000
0000
0000
06C0
0000
0700
0D80
1F00
1800
1B00
1C00
0000
0000
ENDCHAR
STARTCHAR cyr-A
ENCODING 225
SWIDTH 692 0
DWIDTH 9 0
BBX 13 13 -1 -2
BITMAP
0000
0000
00C0
00C0
03C0
03C0
03C0
0CC0
0FC0
0CC0
3FC0
0000
0000
ENDCHAR
STARTCHAR cyr-Be
ENCODING 226
SWIDTH 615 0
DWIDTH 8 0
BBX 12 13 -1 -2
BITMAP
0000
0000
07F0
0330
0600
07C0
0660
0CC0
0CC0
0CC0
3F00
0000
0000
ENDCHAR
STARTCHAR cyr-Ve
ENCODING 247
SWIDTH 615 0
DWIDTH 8 0
BBX 12 13 -1 -2
BITMAP
0000
0000
07E0
0330
0660
0660
07C0
0CC0
0CC0
0CC0
3F00
0000
0000
ENDCHAR
STARTCHAR cyr-Ghe
ENCODING 231
SWIDTH 615 0
DWIDTH 8 0
BBX 12 13 -1 -2
BITMAP
0000
0000
07F0
0330
0600
0600
0600
0C00
0C00
0C00
3C00
0000
0000
ENDCHAR
STARTCHAR cyr-De
ENCODING 228
SWIDTH 692 0
DWIDTH 9 0
BBX 13 13 -1 -2
BITMAP
0000
0000
01F0
01B0
0360
0360
0360
06C0
06C0
0CC0
3FC0
30C0
0000
ENDCHAR
STARTCHAR cyr-Ie
ENCODING 229
SWIDTH 615 0
DWIDTH 8 0
BBX 12 13 -1 -2
BITMAP
0000
0000
07F0
0330
0600
06C0
07C0
0D80
0C00
0CC0
3F80
0000
0000
ENDCHAR
STARTCHAR cyr-Zhe
ENCODING 246
SWIDTH 846 0
DWIDTH 11 0
BBX 15 13 -1 -2
BITMAP
0000
0000
07FE
036C
06D8
03F0
01E0
07E0
0DB0
0DB0
3FF0
0000
0000
ENDCHAR
STARTCHAR cyr-Ze
ENCODING 250
SWIDTH 538 0
DWIDTH 7 0
BBX 11 13 -1 -2
BITMAP
0000
0000
03C0
0660
00C0
00C0
0380
0180
0180
1980
1E00
0000
0000
ENDCHAR
STARTCHAR cyr-I
ENCODING 233
SWIDTH 692 0
DWIDTH 9 0
BBX 13 13 -1 -2
BITMAP
0000
0000
07F8
0330
0660
06E0
07E0
0FC0
0EC0
0CC0
3FC0
0000
0000
ENDCHAR
STARTCHAR cyr-I-short
ENCODING 234
SWIDTH 692 0
DWIDTH 9 0
BBX 13 13 -1 -2
BITMAP
00F0
0000
07F8
0330
0660
0660
06E0
0FC0
0EC0
0CC0
3FC0
0000
0000
ENDCHAR
STARTCHAR cyr-Ka
ENCODING 235
SWIDTH 692 0
DWIDTH 9 0
BBX 13 13 -1 -2
BITMAP
0000
0000
07F8
0330
06C0
0780
07C0
0D80
0CC0
0CC0
3FC0
0000
0000
ENDCHAR
STARTCHAR cyr-El
ENCODING 236
SWIDTH 538 0
DWIDTH 7 0
BBX 11 13 -1 -2
BITMAP
0000
0000
07E0
0360
06C0
06C0
06C0
0D80
0D80
0D80
7300
0000
0000
ENDCHAR
STARTCHAR cyr-Em
ENCODING 237
SWIDTH 846 0
DWIDTH 11 0
BBX 15 13 -1 -2
BITMAP
0000
0000
070E
030C
0738
0738
07F8
0FF0
0DB0
0DB0
3CF0
0000
0000
ENDCHAR
STARTCHAR cyr-En
ENCODING 238
SWIDTH 692 0
DWIDTH 9 0
BBX 13 13 -1 -2
BITMAP
0000
0000
07F8
0330
0660
0660
07E0
0CC0
0CC0
0CC0
3FC0
0000
0000
ENDCHAR
STARTCHAR cyr-O
ENCODING 239
SWIDTH 538 0
DWIDTH 7 0
BBX 11 13 -1 -2
BITMAP
0000
0000
03C0
0660
0CC0
0CC0
0CC0
1980
1980
1980
1E00
0000
0000
ENDCHAR
STARTCHAR cyr-Pe
ENCODING 240
SWIDTH 692 0
DWIDTH 9 0
BBX 13 13 -1 -2
BITMAP
0000
0000
07F8
0330
0660
0660
0660
0CC0
0CC0
0CC0
3FC0
0000
0000
ENDCHAR
STARTCHAR cyr-Er
ENCODING 242
SWIDTH 615 0
DWIDTH 8 0
BBX 12 13 -1 -2
BITMAP
0000
0000
07E0
0330
0660
0660
0660
0F80
0C00
0C00
3C00
0000
0000
ENDCHAR
STARTCHAR cyr-Es
ENCODING 243
SWIDTH 538 0
DWIDTH 7 0
BBX 11 13 -1 -2
BITMAP
0000
0000
03E0
0660
0C00
0C00
0C00
1800
1800
1980
1E00
0000
0000
ENDCHAR
STARTCHAR cyr-Te
ENCODING 244
SWIDTH 538 0
DWIDTH 7 0
BBX 11 13 -1 -2
BITMAP
0000
0000
07E0
07E0
0300
0300
0300
0600
0600
0600
1E00
0000
0000
ENDCHAR
STARTCHAR cyr-U
ENCODING 245
SWIDTH 692 0
DWIDTH 9 0
BBX 13 13 -1 -2
BITMAP
0000
0000
07F8
0330
0660
03C0
03C0
0300
0300
0300
3C00
0000
0000
ENDCHAR
STARTCHAR cyr-Ef
ENCODING 230
SWIDTH 846 0
DWIDTH 11 0
BBX 15 13 -1 -2
BITMAP
0000
0000
01F8
036C
06D8
06D8
06D8
0DB0
07E0
0180
0780
0000
0000
ENDCHAR
STARTCHAR cyr-Kha
ENCODING 232
SWIDTH 692 0
DWIDTH 9 0
BBX 13 13 -1 -2
BITMAP
0000
0000
07F8
0330
0660
03C0
0180
0780
0CC0
0CC0
3FC0
0000
0000
ENDCHAR
STARTCHAR cyr-Tse
ENCODING 227
SWIDTH 692 0
DWIDTH 9 0
BBX 13 13 -1 -2
BITMAP
0000
0000
07F8
0330
0660
0660
0660
0CC0
0CC0
0CC0
3FC0
00C0
00C0
ENDCHAR
STARTCHAR cyr-Che
ENCODING 254
SWIDTH 692 0
DWIDTH 9 0
BBX 13 13 -1 -2
BITMAP
0000
0000
07F8
0330
0660
0660
03E0
00C0
00C0
00C0
03C0
0000
0000
ENDCHAR
STARTCHAR cyr-Sha
ENCODING 251
SWIDTH 846 0
DWIDTH 11 0
BBX 15 13 -1 -2
BITMAP
0000
0000
07FE
036C
06D8
06D8
06D8
0DB0
0DB0
0DB0
3FF0
0000
0000
ENDCHAR
STARTCHAR cyr-Shcha
ENCODING 253
SWIDTH 846 0
DWIDTH 11 0
BBX 15 13 -1 -2
BITMAP
0000
0000
07FE
036C
06D8
06D8
06D8
0DB0
0DB0
0DB0
3FF0
0030
0000
ENDCHAR
STARTCHAR cyr-Ier
ENCODING 255
SWIDTH 692 0
DWIDTH 9 0
BBX 13 13 -1 -2
BITMAP
0000
0000
07C0
0780
0F00
0300
03E0
0660
0660
0660
1F80
0000
0000
ENDCHAR
STARTCHAR cyr-Iery
ENCODING 249
SWIDTH 846 0
DWIDTH 11 0
BBX 15 13 -1 -2
BITMAP
0000
0000
079E
030C
0618
0618
07D8
0CF0
0CF0
0CF0
3FF0
0000
0000
ENDCHAR
STARTCHAR cyr-Ierik
ENCODING 248
SWIDTH 615 0
DWIDTH 8 0
BBX 12 13 -1 -2
BITMAP
0000
0000
0780
0300
0600
0600
07C0
0CC0
0CC0
0CC0
3F00
0000
0000
ENDCHAR
STARTCHAR cyr-E-rev
ENCODING 252
SWIDTH 538 0
DWIDTH 7 0
BBX 11 13 -1 -2
BITMAP
0000
0000
03C0
0660
00C0
00C0
07C0
0180
0180
1980
1E00
0000
0000
ENDCHAR
STARTCHAR cyr-Yu
ENCODING 224
SWIDTH 846 0
DWIDTH 11 0
BBX 15 13 -1 -2
BITMAP
0000
0000
07BC
0366
06CC
06CC
07CC
0D98
0D98
0D98
3DE0
0000
0000
ENDCHAR
STARTCHAR cyr-Ya
ENCODING 241
SWIDTH 692 0
DWIDTH 9 0
BBX 13 13 -1 -2
BITMAP
0000
0000
01F8
0330
0660
0660
03E0
03C0
06C0
06C0
3BC0
0000
0000
ENDCHAR
STARTCHAR cyr-a
ENCODING 193
SWIDTH 461 0
DWIDTH 6 0
BBX 10 13 -1 -2
BITMAP
0000
0000
0000
0000
0000
0700
0180
0F00
1B00
1B00
1E00
0000
0000
ENDCHAR
STARTCHAR cyr-be
ENCODING 194
SWIDTH 461 0
DWIDTH 6 0
BBX 10 13 -1 -2
BITMAP
0000
00C0
0380
0600
0C00
0F00
0D80
1B00
1B00
1B00
1C00
0000
0000
ENDCHAR
STARTCHAR cyr-ve
ENCODING 215
SWIDTH 538 0
DWIDTH 7 0
BBX 11 13 -1 -2
BITMAP
0000
0000
0000
0000
0000
0F80
06C0
0F00
0D80
0D80
3E00
0000
0000
ENDCHAR
STARTCHAR cyr-ghe
ENCODING 199
SWIDTH 538 0
DWIDTH 7 0
BBX 11 13 -1 -2
BITMAP
0000
0000
0000
0000
0000
0FC0
06C0
0C00
0C00
0C00
3C00
0000
0000
ENDCHAR
STARTCHAR cyr-de
ENCODING 196
SWIDTH 615 0
DWIDTH 8 0
BBX 12 13 -1 -2
BITMAP
0000
0000
0000
0000
0000
03C0
03C0
0780
0780
0D80
3F80
3180
0000
ENDCHAR
STARTCHAR cyr-ie
ENCODING 197
SWIDTH 461 0
DWIDTH 6 0
BBX 10 13 -1 -2
BITMAP
0000
0000
0000
0000
0000
0700
0D80
1F00
1800
1B00
1C00
0000
0000
ENDCHAR
STARTCHAR cyr-zhe
ENCODING 214
SWIDTH 692 0
DWIDTH 9 0
BBX 13 13 -1 -2
BITMAP
0000
0000
0000
0000
0000
0DB0
07E0
0780
0FC0
1B60
36C0
0000
0000
ENDCHAR
STARTCHAR cyr-z
ENCODING 218
SWIDTH 538 0
DWIDTH 7 0
BBX 11 13 -1 -2
BITMAP
0000
0000
0000
0000
0000
0780
0CC0
0300
0180
1980
1E00
0000
0000
ENDCHAR
STARTCHAR cyr-i
ENCODING 201
SWIDTH 461 0
DWIDTH 6 0
BBX 10 13 -1 -2
BITMAP
0000
0000
0000
0000
0000
0D80
0D80
1F00
1F00
1B00
3600
0000
0000
ENDCHAR
STARTCHAR cyr-i-short
ENCODING 202
SWIDTH 461 0
DWIDTH 6 0
BBX 10 13 -1 -2
BITMAP
0000
0000
0000
0380
0000
0D80
0D80
1F00
1F00
1B00
3600
0000
0000
ENDCHAR
STARTCHAR cyr-ka
ENCODING 203
SWIDTH 461 0
DWIDTH 6 0
BBX 10 13 -1 -2
BITMAP
0000
0000
0000
0000
0000
0D80
0F00
1C00
1E00
1B00
3600
0000
0000
ENDCHAR
STARTCHAR cyr-el
ENCODING 204
SWIDTH 461 0
DWIDTH 6 0
BBX 10 13 -1 -2
BITMAP
0000
0000
0000
0000
0000
0780
0780
0F00
0F00
0F00
3600
0000
0000
ENDCHAR
STARTCHAR cyr-em
ENCODING 205
SWIDTH 538 0
DWIDTH 7 0
BBX 11 13 -1 -2
BITMAP
0000
0000
0000
0000
0000
0CC0
0FC0
1F80
1F80
1F80
3300
0000
0000
ENDCHAR
STARTCHAR cyr-en
ENCODING 206
SWIDTH 461 0
DWIDTH 6 0
BBX 10 13 -1 -2
BITMAP
0000
0000
0000
0000
0000
0D80
0D80
1F00
1B00
1B00
3600
0000
0000
ENDCHAR
STARTCHAR cyr-o
ENCODING 207
SWIDTH 461 0
DWIDTH 6 0
BBX 10 13 -1 -2
BITMAP
0000
0000
0000
0000
0000
0700
0D80
1B00
1B00
1B00
1C00
0000
0000
ENDCHAR
STARTCHAR cyr-pe
ENCODING 208
SWIDTH 461 0
DWIDTH 6 0
BBX 10 13 -1 -2
BITMAP
0000
0000
0000
0000
0000
0F80
0D80
1B00
1B00
1B00
3600
0000
0000
ENDCHAR
STARTCHAR cyr-er
ENCODING 210
SWIDTH 538 0
DWIDTH 7 0
BBX 11 13 -1 -2
BITMAP
0000
0000
0000
0000
0000
0F80
06C0
0D80
0D80
0D80
1E00
1800
3C00
ENDCHAR
STARTCHAR cyr-es
ENCODING 211
SWIDTH 461 0
DWIDTH 6 0
BBX 10 13 -1 -2
BITMAP
0000
0000
0000
0000
0000
0700
0D80
1800
1800
1B00
1C00
0000
0000
ENDCHAR
STARTCHAR cyr-te
ENCODING 212
SWIDTH 538 0
DWIDTH 7 0
BBX 11 13 -1 -2
BITMAP
0000
0000
0000
0000
0000
0FC0
0FC0
0600
0600
0600
1E00
0000
0000
ENDCHAR
STARTCHAR cyr-u
ENCODING 213
SWIDTH 538 0
DWIDTH 7 0
BBX 11 13 -1 -2
BITMAP
0000
0000
0000
0000
0000
0CC0
0CC0
0F00
0F00
0600
0C00
0C00
3800
ENDCHAR
STARTCHAR cyr-ef
ENCODING 198
SWIDTH 538 0
DWIDTH 7 0
BBX 11 13 -1 -2
BITMAP
0000
0000
0000
0000
0000
0780
0FC0
1F80
1F80
1F80
1E00
0C00
0C00
ENDCHAR
STARTCHAR cyr-kha
ENCODING 200
SWIDTH 538 0
DWIDTH 7 0
BBX 11 13 -1 -2
BITMAP
0000
0000
0000
0000
0000
0FC0
0780
0600
0600
0F00
3F00
0000
0000
ENDCHAR
STARTCHAR cyr-tse
ENCODING 195
SWIDTH 538 0
DWIDTH 7 0
BBX 11 13 -1 -2
BITMAP
0000
0000
0000
0000
0000
0D80
0D80
1B00
1B00
1B00
3F00
0300
0000
ENDCHAR
STARTCHAR cyr-che
ENCODING 222
SWIDTH 461 0
DWIDTH 6 0
BBX 10 13 -1 -2
BITMAP
0000
0000
0000
0000
0000
0D80
0D80
1B00
0F00
0300
0600
0000
0000
ENDCHAR
STARTCHAR cyr-sha
ENCODING 219
SWIDTH 692 0
DWIDTH 9 0
BBX 13 13 -1 -2
BITMAP
0000
0000
0000
0000
0000
0DB0
0DB0
1B60
1B60
1B60
3FC0
0000
0000
ENDCHAR
STARTCHAR cyr-shcha
ENCODING 221
SWIDTH 769 0
DWIDTH 10 0
BBX 14 13 -1 -2
BITMAP
0000
0000
0000
0000
0000
0DB0
0DB0
1B60
1B60
1B60
3FE0
0060
0000
ENDCHAR
STARTCHAR cyr-ier
ENCODING 223
SWIDTH 615 0
DWIDTH 8 0
BBX 12 13 -1 -2
BITMAP
0000
0000
0000
0000
0000
0F00
0F00
0780
06C0
06C0
1F00
0000
0000
ENDCHAR
STARTCHAR cyr-iery
ENCODING 217
SWIDTH 692 0
DWIDTH 9 0
BBX 13 13 -1 -2
BITMAP
0000
0000
0000
0000
0000
0E70
0630
0F60
0DE0
0DE0
3FC0
0000
0000
ENDCHAR
STARTCHAR cyr-ierik
ENCODING 216
SWIDTH 538 0
DWIDTH 7 0
BBX 11 13 -1 -2
BITMAP
0000
0000
0000
0000
0000
0E00
0600
0F00
0D80
0D80
3E00
0000
0000
ENDCHAR
STARTCHAR cyr-e-rev
ENCODING 220
SWIDTH 538 0
DWIDTH 7 0
BBX 11 13 -1 -2
BITMAP
0000
0000
0000
0000
0000
0780
0CC0
0780
0180
1980
1E00
0000
0000
ENDCHAR
STARTCHAR cyr-yu
ENCODING 192
SWIDTH 769 0
DWIDTH 10 0
BBX 14 13 -1 -2
BITMAP
0000
0000
0000
0000
0000
0FE0
07B0
0F60
0F60
0F60
3F80
0000
0000
ENDCHAR
STARTCHAR cyr-ya
ENCODING 209
SWIDTH 538 0
DWIDTH 7 0
BBX 11 13 -1 -2
BITMAP
0000
0000
0000
0000
0000
07C0
0D80
1B00
0F00
0F00
7700
0000
0000
ENDCHAR
ENDFONT
